<svg width="242" height="32" viewBox="0 0 242 32" fill="none" xmlns="http://www.w3.org/2000/svg">
<path d="M11.9832 32C9.89744 32 8.10558 31.5954 6.60763 30.7862C5.12864 29.9586 3.99095 28.8 3.19457 27.3103C2.39819 25.8023 2 24.0276 2 21.9862C2 19.9448 2.39819 18.1793 3.19457 16.6897C3.99095 15.2 5.12864 14.0506 6.60763 13.2414C8.10558 12.4138 9.89744 12 11.9832 12C13.3295 12 14.5999 12.2023 15.7945 12.6069C17.0079 13.0114 18.0034 13.5908 18.7809 14.3448L17.5863 17.1586C16.733 16.4597 15.8609 15.9541 14.9696 15.6414C14.0784 15.3103 13.1209 15.1448 12.097 15.1448C10.0681 15.1448 8.52274 15.7425 7.4609 16.9379C6.39905 18.1149 5.86814 19.7977 5.86814 21.9862C5.86814 24.1748 6.39905 25.8666 7.4609 27.0621C8.52274 28.2575 10.0681 28.8552 12.097 28.8552C13.1209 28.8552 14.0784 28.6989 14.9696 28.3862C15.8609 28.0552 16.733 27.5403 17.5863 26.8414L18.7809 29.6552C18.0034 30.3908 17.0079 30.9701 15.7945 31.3931C14.5999 31.7977 13.3295 32 11.9832 32ZM19.38 31.7241L28.4531 12.2759H31.4395L40.5126 31.7241H36.8151L34.8241 27.2276H25.04L23.0775 31.7241H19.38ZM29.9036 16.1103L26.2915 24.4138H33.5725L29.9605 16.1103H29.9036ZM49.3958 32C47.8219 32 46.362 31.8069 45.0157 31.4207C43.6694 31.0161 42.5317 30.4735 41.6026 29.7931L42.7118 27.0069C43.6409 27.6506 44.6554 28.1472 45.7552 28.4966C46.8739 28.8459 48.0874 29.0207 49.3958 29.0207C50.8937 29.0207 51.984 28.7817 52.6666 28.3034C53.3492 27.8069 53.6905 27.1724 53.6905 26.4C53.6905 25.7563 53.4441 25.2506 52.951 24.8828C52.477 24.5149 51.6522 24.2114 50.4766 23.9724L47.3479 23.3379C43.7831 22.6023 42.0008 20.8276 42.0008 18.0138C42.0008 16.8 42.3326 15.7425 42.9963 14.8414C43.66 13.9403 44.5795 13.2414 45.7552 12.7448C46.9308 12.2483 48.2865 12 49.8224 12C51.1876 12 52.4675 12.2023 53.6621 12.6069C54.8567 12.9931 55.8521 13.5448 56.6485 14.2621L55.5393 16.9103C53.9654 15.623 52.0504 14.9793 49.7939 14.9793C48.4856 14.9793 47.4617 15.2459 46.7222 15.7793C45.9827 16.3127 45.6129 17.0114 45.6129 17.8759C45.6129 18.5379 45.8405 19.0713 46.2956 19.4759C46.7506 19.8621 47.5281 20.1655 48.6278 20.3862L51.728 21.0207C53.6052 21.4069 54.9989 22.0138 55.909 22.8414C56.8381 23.669 57.3027 24.7724 57.3027 26.1517C57.3027 27.3103 56.9803 28.331 56.3356 29.2138C55.691 30.0966 54.7713 30.7862 53.5768 31.2828C52.4011 31.761 51.0074 32 49.3958 32ZM67.3388 32C65.7649 32 64.305 31.8069 62.9587 31.4207C61.6124 31.0161 60.4747 30.4735 59.5456 29.7931L60.6549 27.0069C61.5839 27.6506 62.5985 28.1472 63.6982 28.4966C64.817 28.8459 66.0304 29.0207 67.3388 29.0207C68.8367 29.0207 69.927 28.7817 70.6096 28.3034C71.2922 27.8069 71.6336 27.1724 71.6336 26.4C71.6336 25.7563 71.3871 25.2506 70.8941 24.8828C70.4201 24.5149 69.5952 24.2114 68.4196 23.9724L65.291 23.3379C61.7262 22.6023 59.9438 20.8276 59.9438 18.0138C59.9438 16.8 60.2756 15.7425 60.9393 14.8414C61.603 13.9403 62.5225 13.2414 63.6982 12.7448C64.8738 12.2483 66.2295 12 67.7654 12C69.1306 12 70.4105 12.2023 71.6051 12.6069C72.7997 12.9931 73.7952 13.5448 74.5915 14.2621L73.4823 16.9103C71.9085 15.623 69.9934 14.9793 67.737 14.9793C66.4286 14.9793 65.4047 15.2459 64.6652 15.7793C63.9257 16.3127 63.556 17.0114 63.556 17.8759C63.556 18.5379 63.7835 19.0713 64.2386 19.4759C64.6937 19.8621 65.4711 20.1655 66.5708 20.3862L69.671 21.0207C71.5482 21.4069 72.9419 22.0138 73.852 22.8414C74.7811 23.669 75.2457 24.7724 75.2457 26.1517C75.2457 27.3103 74.9233 28.331 74.2787 29.2138C73.634 30.0966 72.7144 30.7862 71.5198 31.2828C70.3441 31.761 68.9505 32 67.3388 32ZM87.3581 32C85.424 32 83.727 31.5862 82.2669 30.7586C80.8259 29.931 79.7072 28.7724 78.9108 27.2828C78.1144 25.7748 77.7162 24.0092 77.7162 21.9862C77.7162 19.9448 78.1144 18.1793 78.9108 16.6897C79.7072 15.2 80.8259 14.0506 82.2669 13.2414C83.708 12.4138 85.4051 12 87.3581 12C89.3111 12 91.0082 12.4138 92.4492 13.2414C93.8903 14.0506 95.009 15.2 95.8054 16.6897C96.6018 18.1793 97 19.9356 97 21.9586C97 24 96.6018 25.7748 95.8054 27.2828C95.009 28.7724 93.8903 29.931 92.4492 30.7586C91.0082 31.5862 89.3111 32 87.3581 32ZM87.3581 28.9655C89.1973 28.9655 90.6289 28.3494 91.6529 27.1172C92.6768 25.8851 93.1887 24.1748 93.1887 21.9862C93.1887 19.7793 92.6768 18.069 91.6529 16.8552C90.6479 15.6414 89.2164 15.0345 87.3581 15.0345C85.5189 15.0345 84.0872 15.6414 83.0633 16.8552C82.0394 18.069 81.5274 19.7793 81.5274 21.9862C81.5274 24.1748 82.0394 25.8851 83.0633 27.1172C84.0872 28.3494 85.5189 28.9655 87.3581 28.9655Z" fill="#16AB65"/>
<path d="M122.874 13.8864C122.304 13.2869 121.625 12.8114 120.877 12.4875C120.129 12.1636 119.327 11.9979 118.517 12C117.706 11.9979 116.904 12.1636 116.156 12.4875C115.408 12.8114 114.729 13.2869 114.159 13.8864L113.812 14.2611L113.464 13.8993C112.312 12.7001 110.749 12.0263 109.119 12.0263C107.49 12.0263 105.927 12.7001 104.774 13.8993C103.637 15.1069 103 16.7305 103 18.4215C103 20.1125 103.637 21.736 104.774 22.9436L113.179 31.7166C113.353 31.8981 113.59 32 113.836 32C114.083 32 114.32 31.8981 114.494 31.7166L122.899 22.9436C124.036 21.7321 124.671 20.1038 124.667 18.4097C124.662 16.7156 124.018 15.0912 122.874 13.8864Z" fill="#F4002E"/>
<path fill-rule="evenodd" clip-rule="evenodd" d="M131.381 8.44981C131.024 7.82752 130.796 7.14017 130.708 6.4282C130.62 5.71608 130.674 4.99361 130.868 4.30296C131.062 3.61232 131.391 2.9673 131.837 2.40584C132.282 1.84424 132.835 1.37748 133.463 1.03271L134.18 0.638389C135.364 -0.0111774 136.753 -0.17251 138.053 0.188726C139.354 0.549963 140.462 1.40539 141.143 2.57313L147.92 14.1976L154.698 2.57031C155.032 1.9982 155.475 1.49758 156.001 1.0973C156.528 0.69687 157.128 0.404464 157.768 0.236859C158.408 0.0692545 159.074 0.0295878 159.729 0.120367C160.383 0.21099 161.014 0.430177 161.584 0.765387L162.42 1.2566C163.62 1.9623 164.494 3.11264 164.855 4.45943C165.215 5.80607 165.032 7.24067 164.346 8.45357L152.622 29.1852C152.153 30.0135 151.475 30.7027 150.654 31.1831C149.834 31.6633 148.902 31.9176 147.952 31.9201C147.002 31.9226 146.069 31.6732 145.246 31.1972C144.424 30.7212 143.741 30.0354 143.268 29.2096L131.381 8.44981Z" fill="#ED2132"/>
<path fill-rule="evenodd" clip-rule="evenodd" d="M140.831 2.03752C140.831 2.03752 139.572 0.753906 137.282 0.753906C134.991 0.753906 132.7 3.42179 134.351 6.29192C136.001 9.1619 138.495 13.4172 139.202 14.4975C139.909 15.5778 141.156 16.8275 143.581 16.8275C146.007 16.8275 147.919 14.2012 147.919 14.2012L140.831 2.03752Z" fill="#A02C22"/>
<path fill-rule="evenodd" clip-rule="evenodd" d="M165.673 13.8898V30.1591C165.692 30.6342 165.893 31.0835 166.235 31.4131C166.577 31.7424 167.033 31.9265 167.508 31.9265C167.982 31.9265 168.438 31.7424 168.78 31.4131C169.122 31.0835 169.324 30.6342 169.343 30.1591V13.8898C169.324 13.4147 169.122 12.9652 168.78 12.6358C168.438 12.3064 167.982 12.1224 167.508 12.1224C167.033 12.1224 166.577 12.3064 166.235 12.6358C165.893 12.9652 165.692 13.4147 165.673 13.8898ZM192.614 15.7288V30.1591C192.629 30.6366 192.829 31.0895 193.172 31.4217C193.515 31.754 193.973 31.9399 194.449 31.9399C194.926 31.9399 195.384 31.754 195.727 31.4217C196.069 31.0895 196.269 30.6366 196.285 30.1591V15.7288H199.632C200.106 15.7097 200.554 15.5075 200.882 15.1648C201.211 14.8218 201.395 14.3647 201.395 13.8893C201.395 13.4137 201.211 12.9567 200.882 12.6138C200.554 12.2709 200.106 12.0689 199.632 12.0498H189.158C188.678 12.0609 188.222 12.2596 187.887 12.6034C187.552 12.9471 187.364 13.4087 187.364 13.8893C187.364 14.3699 187.552 14.8315 187.887 15.1752C188.222 15.519 188.678 15.7177 189.158 15.7288H192.614ZM176.122 23.8638H184.794C185.268 23.8448 185.716 23.6427 186.045 23.2999C186.374 22.957 186.557 22.4999 186.557 22.0244C186.557 21.5489 186.374 21.0919 186.045 20.749C185.716 20.406 185.268 20.2041 184.794 20.185H176.122V15.7288H184.831C185.31 15.7177 185.766 15.519 186.101 15.1752C186.436 14.8315 186.624 14.3699 186.624 13.8893C186.624 13.4087 186.436 12.9471 186.101 12.6034C185.766 12.2596 185.31 12.0609 184.831 12.0498H174.287C173.8 12.0498 173.333 12.2436 172.989 12.5887C172.644 12.9337 172.451 13.4018 172.451 13.8898V30.1591C172.451 31.1755 173.273 31.9999 174.287 31.9999H184.794C185.27 31.9844 185.722 31.7837 186.054 31.4403C186.385 31.097 186.57 30.6379 186.57 30.1601C186.57 29.6822 186.385 29.2231 186.054 28.8797C185.722 28.5364 185.27 28.3358 184.794 28.3201H176.122V23.8638Z" fill="#ED2132"/>
<path fill-rule="evenodd" clip-rule="evenodd" d="M210.727 28.0634L212.758 31.667C212.758 31.667 211.315 31.824 210.259 31.8499C206.897 31.9356 199.841 29.8412 199.841 21.8574C199.841 13.8745 207.402 11.9023 210.393 11.9023C213.383 11.9023 220.887 14.1401 220.887 21.8583C220.887 26.7478 217.952 28.9817 217.952 28.9817L219.459 31.4813H215.262L210.026 22.3204H214.134L215.6 24.8084C215.6 24.8084 216.412 23.8392 216.412 21.8574C216.412 19.8766 214.856 15.7148 210.477 15.7148C206.099 15.7148 204.407 19.2914 204.407 21.8574C204.407 28.2241 210.727 28.0634 210.727 28.0634ZM222.894 12.2652H231.871C235.095 12.2652 239.505 14.3336 239.505 19.2452C239.505 24.1576 235.559 25.4599 235.559 25.4599L239.918 31.5255H235.017L227.769 20.9517H232.545L233.367 22.1932C233.367 22.1932 235.024 21.4666 235.024 19.3068C235.024 17.1488 233.105 15.9034 231.203 15.9034H227.305V31.4928H222.867L222.894 12.2652Z" fill="#1E427E"/>
</svg>
